<svg xmlns="http://www.w3.org/2000/svg" width="800" height="600" viewBox="0 0 800 600">
  <!-- Background -->
  <rect width="800" height="600" fill="#f0f0f0" />
  
  <!-- Definitions for reusable elements -->
  <defs>
    <!-- Gradient for depth -->
    <linearGradient id="podGradient" x1="0%" y1="0%" x2="100%" y2="100%">
      <stop offset="0%" style="stop-color:#e6e6ff;stop-opacity:0.8" />
      <stop offset="100%" style="stop-color:#d5d5ff;stop-opacity:0.4" />
    </linearGradient>
    
    <!-- Patterns for different module types -->
    <pattern id="livingPattern" patternUnits="userSpaceOnUse" width="10" height="10" patternTransform="rotate(45)">
      <rect width="10" height="10" fill="#d5e5f9" fill-opacity="0.5" />
      <line x1="0" y1="0" x2="10" y2="10" stroke="#a0c0e0" stroke-width="1" />
    </pattern>
    
    <pattern id="agriculturePattern" patternUnits="userSpaceOnUse" width="10" height="10" patternTransform="rotate(45)">
      <rect width="10" height="10" fill="#d5f9d5" fill-opacity="0.5" />
      <line x1="0" y1="0" x2="10" y2="10" stroke="#a0e0a0" stroke-width="1" />
    </pattern>
    
    <pattern id="medicalPattern" patternUnits="userSpaceOnUse" width="10" height="10" patternTransform="rotate(45)">
      <rect width="10" height="10" fill="#f9d5d5" fill-opacity="0.5" />
      <line x1="0" y1="0" x2="10" y2="10" stroke="#e0a0a0" stroke-width="1" />
    </pattern>
    
    <pattern id="researchPattern" patternUnits="userSpaceOnUse" width="10" height="10" patternTransform="rotate(45)">
      <rect width="10" height="10" fill="#f9f9d5" fill-opacity="0.5" />
      <line x1="0" y1="0" x2="10" y2="10" stroke="#e0e0a0" stroke-width="1" />
    </pattern>
    
    <pattern id="centralPattern" patternUnits="userSpaceOnUse" width="10" height="10" patternTransform="rotate(45)">
      <rect width="10" height="10" fill="#f9d5e5" fill-opacity="0.7" />
      <line x1="0" y1="0" x2="10" y2="10" stroke="#e0a0c0" stroke-width="1" />
    </pattern>
    
    <!-- Quantum field effect -->
    <radialGradient id="fieldGradient" cx="50%" cy="50%" r="50%" fx="50%" fy="50%">
      <stop offset="0%" style="stop-color:rgba(170,255,170,0.3)" />
      <stop offset="70%" style="stop-color:rgba(170,255,170,0.1)" />
      <stop offset="100%" style="stop-color:rgba(170,255,170,0)" />
    </radialGradient>
    
    <!-- Glow effect for active nodes -->
    <filter id="glow" x="-20%" y="-20%" width="140%" height="140%">
      <feGaussianBlur stdDeviation="5" result="blur" />
      <feComposite in="SourceGraphic" in2="blur" operator="over" />
    </filter>
    
    <!-- Define a hex cell as a symbol for reuse -->
    <symbol id="hexCell" viewBox="-50 -50 100 100">
      <polygon points="0,-43 37.5,-21.5 37.5,21.5 0,43 -37.5,21.5 -37.5,-21.5" fill="url(#podGradient)" stroke="#333" stroke-width="1" />
    </symbol>
  </defs>
  
  <!-- Title -->
  <text x="400" y="40" text-anchor="middle" font-family="Arial" font-size="24" font-weight="bold" fill="#333">
    Bio-Resonance Honeycomb Habitat - Growth Configuration
  </text>
  
  <!-- Quantum Field Background -->
  <circle cx="400" cy="300" r="270" fill="url(#fieldGradient)" opacity="0.7" />
  
  <!-- Phase 1 Habitat (Existing) -->
  <g transform="translate(400, 300)">
    <!-- Central Hub -->
    <use href="#hexCell" x="0" y="0" width="100" height="100" />
    <text x="0" y="5" text-anchor="middle" font-family="Arial" font-size="12" fill="#333" font-weight="bold">Central Hub</text>
    <text x="0" y="20" text-anchor="middle" font-family="Arial" font-size="8" fill="#333">Phase 1</text>
    
    <!-- Ring 1 - First 6 modules -->
    <!-- Living Module 1 -->
    <use href="#hexCell" x="0" y="-75" width="100" height="100" fill="url(#livingPattern)" />
    <text x="0" y="-75" text-anchor="middle" font-family="Arial" font-size="10" fill="#333">Living A1</text>
    
    <!-- Agriculture Module 1 -->
    <use href="#hexCell" x="65" y="-37.5" width="100" height="100" fill="url(#agriculturePattern)" />
    <text x="65" y="-37.5" text-anchor="middle" font-family="Arial" font-size="10" fill="#333">Agri A1</text>
    
    <!-- Research Module 1 -->
    <use href="#hexCell" x="65" y="37.5" width="100" height="100" fill="url(#researchPattern)" />
    <text x="65" y="37.5" text-anchor="middle" font-family="Arial" font-size="10" fill="#333">Research</text>
    
    <!-- Living Module 2 -->
    <use href="#hexCell" x="0" y="75" width="100" height="100" fill="url(#livingPattern)" />
    <text x="0" y="75" text-anchor="middle" font-family="Arial" font-size="10" fill="#333">Living A2</text>
    
    <!-- Medical Module -->
    <use href="#hexCell" x="-65" y="37.5" width="100" height="100" fill="url(#medicalPattern)" />
    <text x="-65" y="37.5" text-anchor="middle" font-family="Arial" font-size="10" fill="#333">Medical</text>
    
    <!-- Agriculture Module 2 -->
    <use href="#hexCell" x="-65" y="-37.5" width="100" height="100" fill="url(#agriculturePattern)" />
    <text x="-65" y="-37.5" text-anchor="middle" font-family="Arial" font-size="10" fill="#333">Agri A2</text>
    
    <!-- Connection corridors for Ring 1 -->
    <line x1="0" y1="-43" x2="0" y2="-32" stroke="#333" stroke-width="2" />
    <line x1="37.5" y1="-21.5" x2="27.5" y2="-15.5" stroke="#333" stroke-width="2" />
    <line x1="37.5" y1="21.5" x2="27.5" y2="15.5" stroke="#333" stroke-width="2" />
    <line x1="0" y1="43" x2="0" y2="32" stroke="#333" stroke-width="2" />
    <line x1="-37.5" y1="21.5" x2="-27.5" y2="15.5" stroke="#333" stroke-width="2" />
    <line x1="-37.5" y1="-21.5" x2="-27.5" y2="-15.5" stroke="#333" stroke-width="2" />
  </g>
  
  <!-- Phase 2 Habitat (Under Construction) -->
  <g transform="translate(400, 300)" opacity="0.8">
    <!-- Ring 2 - Additional modules -->
    <!-- Living Module 3 -->
    <use href="#hexCell" x="0" y="-150" width="100" height="100" fill="url(#livingPattern)" />
    <text x="0" y="-150" text-anchor="middle" font-family="Arial" font-size="10" fill="#333">Living B1</text>
    <text x="0" y="-135" text-anchor="middle" font-family="Arial" font-size="8" fill="#333">Phase 2</text>
    
    <!-- Living Module 4 -->
    <use href="#hexCell" x="65" y="-112.5" width="100" height="100" fill="url(#livingPattern)" />
    <text x="65" y="-112.5" text-anchor="middle" font-family="Arial" font-size="10" fill="#333">Living B2</text>
    <text x="65" y="-97.5" text-anchor="middle" font-family="Arial" font-size="8" fill="#333">Phase 2</text>
    
    <!-- Agriculture Module 3 -->
    <use href="#hexCell" x="130" y="-75" width="100" height="100" fill="url(#agriculturePattern)" />
    <text x="130" y="-75" text-anchor="middle" font-family="Arial" font-size="10" fill="#333">Agri B1</text>
    <text x="130" y="-60" text-anchor="middle" font-family="Arial" font-size="8" fill="#333">Phase 2</text>
    
    <!-- Research Module 2 -->
    <use href="#hexCell" x="130" y="0" width="100" height="100" fill="url(#researchPattern)" />
    <text x="130" y="0" text-anchor="middle" font-family="Arial" font-size="10" fill="#333">Research B</text>
    <text x="130" y="15" text-anchor="middle" font-family="Arial" font-size="8" fill="#333">Phase 2</text>
    
    <!-- Living Module 5 -->
    <use href="#hexCell" x="130" y="75" width="100" height="100" fill="url(#livingPattern)" />
    <text x="130" y="75" text-anchor="middle" font-family="Arial" font-size="10" fill="#333">Living B3</text>
    <text x="130" y="90" text-anchor="middle" font-family="Arial" font-size="8" fill="#333">Phase 2</text>
    
    <!-- Agriculture Module 4 -->
    <use href="#hexCell" x="65" y="112.5" width="100" height="100" fill="url(#agriculturePattern)" />
    <text x="65" y="112.5" text-anchor="middle" font-family="Arial" font-size="10" fill="#333">Agri B2</text>
    <text x="65" y="127.5" text-anchor="middle" font-family="Arial" font-size="8" fill="#333">Phase 2</text>
    
    <!-- Connection corridors for Ring 2 -->
    <line x1="0" y1="-75" x2="0" y2="-107" stroke="#333" stroke-width="2" stroke-dasharray="5,3" />
    <line x1="65" y1="-37.5" x2="65" y2="-70" stroke="#333" stroke-width="2" stroke-dasharray="5,3" />
    <line x1="65" y1="-37.5" x2="93" y2="-56" stroke="#333" stroke-width="2" stroke-dasharray="5,3" />
    <line x1="65" y1="37.5" x2="93" y2="18" stroke="#333" stroke-width="2" stroke-dasharray="5,3" />
    <line x1="65" y1="37.5" x2="93" y2="56" stroke="#333" stroke-width="2" stroke-dasharray="5,3" />
    <line x1="0" y1="75" x2="32" y2="93" stroke="#333" stroke-width="2" stroke-dasharray="5,3" />
  </g>
  
  <!-- Phase 3 Habitat (Future Expansion) -->
  <g transform="translate(400, 300)" opacity="0.5">
    <!-- Ring 3 - Future expansion modules (ghost/outline) -->
    <!-- Living Module Group C -->
    <use href="#hexCell" x="-130" y="-75" width="100" height="100" stroke-dasharray="5,3" fill="rgba(213,229,249,0.3)" />
    <text x="-130" y="-75" text-anchor="middle" font-family="Arial" font-size="10" fill="#333">Living C</text>
    <text x="-130" y="-60" text-anchor="middle" font-family="Arial" font-size="8" fill="#333">Phase 3</text>
    
    <use href="#hexCell" x="-130" y="0" width="100" height="100" stroke-dasharray="5,3" fill="rgba(213,229,249,0.3)" />
    <text x="-130" y="0" text-anchor="middle" font-family="Arial" font-size="10" fill="#333">Utility C</text>
    <text x="-130" y="15" text-anchor="middle" font-family="Arial" font-size="8" fill="#333">Phase 3</text>
    
    <use href="#hexCell" x="-130" y="75" width="100" height="100" stroke-dasharray="5,3" fill="rgba(213,229,249,0.3)" />
    <text x="-130" y="75" text-anchor="middle" font-family="Arial" font-size="10" fill="#333">Living C</text>
    <text x="-130" y="90" text-anchor="middle" font-family="Arial" font-size="8" fill="#333">Phase 3</text>
    
    <use href="#hexCell" x="-65" y="112.5" width="100" height="100" stroke-dasharray="5,3" fill="rgba(213,245,213,0.3)" />
    <text x="-65" y="112.5" text-anchor="middle" font-family="Arial" font-size="10" fill="#333">Agri C</text>
    <text x="-65" y="127.5" text-anchor="middle" font-family="Arial" font-size="8" fill="#333">Phase 3</text>
    
    <use href="#hexCell" x="-65" y="-112.5" width="100" height="100" stroke-dasharray="5,3" fill="rgba(213,245,213,0.3)" />
    <text x="-65" y="-112.5" text-anchor="middle" font-family="Arial" font-size="10" fill="#333">Agri C</text>
    <text x="-65" y="-97.5" text-anchor="middle" font-family="Arial" font-size="8" fill="#333">Phase 3</text>
    
    <!-- Connection lines for future expansion -->
    <line x1="-65" y1="-37.5" x2="-93" y2="-56" stroke="#333" stroke-width="1" stroke-dasharray="3,3" opacity="0.5" />
    <line x1="-65" y1="-37.5" x2="-65" y2="-70" stroke="#333" stroke-width="1" stroke-dasharray="3,3" opacity="0.5" />
    <line x1="-65" y1="37.5" x2="-93" y2="18" stroke="#333" stroke-width="1" stroke-dasharray="3,3" opacity="0.5" />
    <line x1="-65" y1="37.5" x2="-93" y2="56" stroke="#333" stroke-width="1" stroke-dasharray="3,3" opacity="0.5" />
    <line x1="0" y1="75" x2="-32" y2="93" stroke="#333" stroke-width="1" stroke-dasharray="3,3" opacity="0.5" />
  </g>
  
  <!-- Field generator nodes -->
  <g transform="translate(400, 300)" filter="url(#glow)">
    <circle cx="0" cy="0" r="10" fill="#aaffaa" opacity="0.8" />
    <circle cx="0" cy="-75" r="6" fill="#aaffaa" opacity="0.7" />
    <circle cx="65" cy="-37.5" r="6" fill="#aaffaa" opacity="0.7" />
    <circle cx="65" cy="37.5" r="6" fill="#aaffaa" opacity="0.7" />
    <circle cx="0" cy="75" r="6" fill="#aaffaa" opacity="0.7" />
    <circle cx="-65" cy="37.5" r="6" fill="#aaffaa" opacity="0.7" />
    <circle cx="-65" cy="-37.5" r="6" fill="#aaffaa" opacity="0.7" />
    
    <!-- Phase 2 field nodes -->
    <circle cx="0" cy="-150" r="4" fill="#aaffaa" opacity="0.5" />
    <circle cx="65" cy="-112.5" r="4" fill="#aaffaa" opacity="0.5" />
    <circle cx="130" cy="-75" r="4" fill="#aaffaa" opacity="0.5" />
    <circle cx="130" cy="0" r="4" fill="#aaffaa" opacity="0.5" />
    <circle cx="130" cy="75" r="4" fill="#aaffaa" opacity="0.5" />
    <circle cx="65" cy="112.5" r="4" fill="#aaffaa" opacity="0.5" />
  </g>
  
  <!-- Quantum field connection lines between nodes -->
  <g transform="translate(400, 300)" opacity="0.3">
    <path d="M0,0 L0,-75 L65,-37.5 L65,37.5 L0,75 L-65,37.5 L-65,-37.5 Z" fill="none" stroke="#aaffaa" stroke-width="2" />
    
    <!-- Phase 2 field connections -->
    <path d="M0,-75 L0,-150 L65,-112.5 L130,-75 L130,0 L130,75 L65,112.5 L0,75" fill="none" stroke="#aaffaa" stroke-width="1.5" stroke-dasharray="5,3" />
  </g>
  
  <!-- Legend -->
  <g transform="translate(400, 530)">
    <rect x="-300" y="0" width="600" height="55" fill="white" stroke="#333" stroke-width="1" rx="5" ry="5" />
    <text x="0" y="15" text-anchor="middle" font-family="Arial" font-size="12" font-weight="bold" fill="#333">Legend</text>
    
    <rect x="-285" y="25" width="15" height="15" fill="url(#centralPattern)" stroke="#333" stroke-width="0.5" />
    <text x="-265" y="37" text-anchor="start" font-family="Arial" font-size="10" fill="#333">Central Hub</text>
    
    <rect x="-185" y="25" width="15" height="15" fill="url(#livingPattern)" stroke="#333" stroke-width="0.5" />
    <text x="-165" y="37" text-anchor="start" font-family="Arial" font-size="10" fill="#333">Living Modules</text>
    
    <rect x="-85" y="25" width="15" height="15" fill="url(#agriculturePattern)" stroke="#333" stroke-width="0.5" />
    <text x="-65" y="37" text-anchor="start" font-family="Arial" font-size="10" fill="#333">Agriculture Modules</text>
    
    <rect x="15" y="25" width="15" height="15" fill="url(#medicalPattern)" stroke="#333" stroke-width="0.5" />
    <text x="35" y="37" text-anchor="start" font-family="Arial" font-size="10" fill="#333">Medical Modules</text>
    
    <rect x="115" y="25" width="15" height="15" fill="url(#researchPattern)" stroke="#333" stroke-width="0.5" />
    <text x="135" y="37" text-anchor="start" font-family="Arial" font-size="10" fill="#333">Research Modules</text>
    
    <circle cx="210" cy="32" r="7" fill="#aaffaa" opacity="0.6" />
    <text x="230" y="37" text-anchor="start" font-family="Arial" font-size="10" fill="#333">Field Generator</text>
  </g>
  
  <!-- Growth Annotation -->
  <g transform="translate(40, 100)">
    <rect x="0" y="0" width="200" height="120" fill="white" stroke="#333" stroke-width="1" rx="5" ry="5" />
    <text x="100" y="20" text-anchor="middle" font-family="Arial" font-size="12" font-weight="bold" fill="#333">Growth Pattern</text>
    
    <text x="10" y="40" text-anchor="start" font-family="Arial" font-size="10" fill="#333">• Phase 1: Initial Core Habitat</text>
    <text x="10" y="60" text-anchor="start" font-family="Arial" font-size="10" fill="#333">• Phase 2: Expansion (in progress)</text>
    <text x="10" y="80" text-anchor="start" font-family="Arial" font-size="10" fill="#333">• Phase 3: Future Growth (planned)</text>
    <text x="10" y="100" text-anchor="start" font-family="Arial" font-size="10" fill="#333">• Quantum field adjusts automatically</text>
    <text x="10" y="115" text-anchor="start" font-family="Arial" font-size="9" fill="#333" font-style="italic">Field strength maintained across phases</text>
  </g>
  
  <!-- Quantum Field Note -->
  <g transform="translate(560, 100)">
    <rect x="0" y="0" width="200" height="120" fill="white" stroke="#333" stroke-width="1" rx="5" ry="5" />
    <text x="100" y="20" text-anchor="middle" font-family="Arial" font-size="12" font-weight="bold" fill="#333">Quantum Field Benefits</text>
    
    <text x="10" y="40" text-anchor="start" font-family="Arial" font-size="10" fill="#333">• Radiation protection</text>
    <text x="10" y="60" text-anchor="start" font-family="Arial" font-size="10" fill="#333">• Atmospheric regulation</text>
    <text x="10" y="80" text-anchor="start" font-family="Arial" font-size="10" fill="#333">• Bio-resonance enhancement</text>
    <text x="10" y="100" text-anchor="start" font-family="Arial" font-size="10" fill="#333">• Energy efficiency optimization</text>
    <text x="10" y="115" text-anchor="start" font-family="Arial" font-size="9" fill="#333" font-style="italic">Coherent field for all connected modules</text>
  </g>
</svg> 