<?xml version="1.0" encoding="UTF-8"?>
<svg width="600" height="400" viewBox="0 0 600 400" xmlns="http://www.w3.org/2000/svg">
  <!-- Neural Acquisition -->
  <rect x="50" y="50" width="150" height="100" rx="5" fill="#ffe8e0" stroke="#333" stroke-width="2"/>
  <text x="65" y="70" font-family="Arial" font-weight="bold">Neural Acquisition</text>
  
  <!-- Quantum Neural Sensors -->
  <rect x="75" y="85" width="100" height="40" rx="5" fill="#f9a" stroke="#333" stroke-width="2"/>
  <text x="88" y="110" font-family="Arial" font-size="12" font-weight="bold">Quantum Neural Sensors</text>
  
  <!-- Processing Core -->
  <rect x="225" y="50" width="150" height="100" rx="5" fill="#e0ffe0" stroke="#333" stroke-width="2"/>
  <text x="240" y="70" font-family="Arial" font-weight="bold">Processing Core</text>
  
  <!-- Thought Interpretation -->
  <rect x="250" y="85" width="100" height="40" rx="5" fill="#af9" stroke="#333" stroke-width="2"/>
  <text x="263" y="110" font-family="Arial" font-size="12" font-weight="bold">Thought Interpretation</text>
  
  <!-- System Control -->
  <rect x="400" y="50" width="150" height="100" rx="5" fill="#e0f0ff" stroke="#333" stroke-width="2"/>
  <text x="415" y="70" font-family="Arial" font-weight="bold">System Control</text>
  
  <!-- System Control Box -->
  <rect x="425" y="85" width="100" height="40" rx="5" fill="#9df" stroke="#333" stroke-width="2"/>
  <text x="438" y="110" font-family="Arial" font-size="12" font-weight="bold">System Control</text>
  
  <!-- Connection Lines -->
  <path d="M175 105 L225 105" stroke="#666" stroke-width="2" fill="none"/>
  <text x="185" y="100" font-family="Arial" font-size="10" font-style="italic">Neural Signals</text>
  
  <path d="M350 105 L400 105" stroke="#666" stroke-width="2" fill="none"/>
  <text x="360" y="100" font-family="Arial" font-size="10" font-style="italic">Commands</text>
  
  <path d="M425 140 C 300 200 175 140 175 130" stroke="#666" stroke-width="2" fill="none"/>
  <text x="300" y="180" font-family="Arial" font-size="10" font-style="italic">Feedback Loop</text>
  
  <!-- Title -->
  <text x="300" y="30" font-family="Arial" font-size="16" font-weight="bold" text-anchor="middle">Neural Interface Command Center</text>
  
  <!-- Legend -->
  <text x="50" y="230" font-family="Arial" font-size="12">This diagram shows the flow of neural signals from human operators to system control and feedback.</text>
</svg> 