<svg xmlns="http://www.w3.org/2000/svg" width="600" height="400" viewBox="0 0 600 400">
  <rect width="600" height="400" fill="#f0f0f0" />
  
  <!-- Main spacecraft -->
  <ellipse cx="300" cy="200" rx="80" ry="35" fill="#f5f5f5" stroke="#333" stroke-width="2" />
  <path d="M230,200 L280,165 L320,165 L370,200 L320,235 L280,235 Z" fill="#d5e5f9" stroke="#333" stroke-width="1.5" />
  
  <!-- Q-Force Core -->
  <circle cx="300" cy="200" r="20" fill="#f9d5e5" stroke="#333" stroke-width="2" />
  <circle cx="300" cy="200" r="10" fill="#aaffaa" stroke="#333" stroke-width="1" />
  
  <!-- Upper half-sphere -->
  <path d="M150,200 A150,150 0 0,1 450,200" fill="none" stroke="#d5e5f9" stroke-width="3" stroke-dasharray="10,5" />
  <path d="M170,200 A130,130 0 0,1 430,200" fill="none" stroke="#d5e5f9" stroke-width="2" stroke-dasharray="8,4" />
  <path d="M190,200 A110,110 0 0,1 410,200" fill="none" stroke="#d5e5f9" stroke-width="1.5" stroke-dasharray="6,3" />
  
  <!-- Lower half-sphere -->
  <path d="M150,200 A150,150 0 0,0 450,200" fill="none" stroke="#f9d5e5" stroke-width="3" stroke-dasharray="10,5" />
  <path d="M170,200 A130,130 0 0,0 430,200" fill="none" stroke="#f9d5e5" stroke-width="2" stroke-dasharray="8,4" />
  <path d="M190,200 A110,110 0 0,0 410,200" fill="none" stroke="#f9d5e5" stroke-width="1.5" stroke-dasharray="6,3" />
  
  <!-- Half-sphere highlight points (upper) -->
  <g fill="#aaffaa" opacity="0.7">
    <circle cx="200" cy="150" r="3" />
    <circle cx="250" cy="120" r="3" />
    <circle cx="300" cy="100" r="3" />
    <circle cx="350" cy="120" r="3" />
    <circle cx="400" cy="150" r="3" />
  </g>
  
  <!-- Half-sphere highlight points (lower) -->
  <g fill="#f9d5e5" opacity="0.7">
    <circle cx="200" cy="250" r="3" />
    <circle cx="250" cy="280" r="3" />
    <circle cx="300" cy="300" r="3" />
    <circle cx="350" cy="280" r="3" />
    <circle cx="400" cy="250" r="3" />
  </g>
  
  <!-- Labels -->
  <g font-family="Arial" font-size="14" fill="#333">
    <text x="300" y="60" text-anchor="middle">Upper Half-Sphere</text>
    <text x="300" y="80" text-anchor="middle">(Cockpit & Avionics)</text>
    <text x="300" y="340" text-anchor="middle">Lower Half-Sphere</text>
    <text x="300" y="360" text-anchor="middle">(Cargo & Instruments Bay)</text>
  </g>
  
  <!-- Force field indicators -->
  <g stroke="#aaffaa" stroke-width="1" opacity="0.4" fill="none">
    <path d="M180,140 C220,130 270,125 300,120 C330,125 380,130 420,140" />
    <path d="M170,150 C220,140 270,135 300,130 C330,135 380,140 430,150" />
    <path d="M160,160 C220,150 270,145 300,140 C330,145 380,150 440,160" />
  </g>
  
  <g stroke="#f9d5e5" stroke-width="1" opacity="0.4" fill="none">
    <path d="M180,260 C220,270 270,275 300,280 C330,275 380,270 420,260" />
    <path d="M170,250 C220,260 270,265 300,270 C330,265 380,260 430,250" />
    <path d="M160,240 C220,250 270,255 300,260 C330,255 380,250 440,240" />
  </g>
  
  <!-- Main Title -->
  <text x="300" y="20" text-anchor="middle" font-family="Arial" font-size="16" font-weight="bold" fill="#333">Quantum Propulsion System Q-Force Field Effect</text>
  
  <!-- Connecting arrows -->
  <g stroke="#333" stroke-width="1.5" fill="none" marker-end="url(#arrowhead)">
    <path d="M300,80 L300,165" />
    <path d="M300,235 L300,320" />
  </g>
  
  <defs>
    <marker id="arrowhead" markerWidth="10" markerHeight="7" refX="10" refY="3.5" orient="auto">
      <polygon points="0 0, 10 3.5, 0 7" fill="#333" />
    </marker>
  </defs>
</svg> 