<svg xmlns="http://www.w3.org/2000/svg" width="800" height="500" viewBox="0 0 800 500">
  <!-- Background -->
  <rect width="800" height="500" fill="#f9f9f9" />
  
  <!-- Title -->
  <text x="400" y="30" font-family="Arial" font-size="20" font-weight="bold" text-anchor="middle">Quantum Tunneling Propulsion Mechanism</text>
  
  <!-- Energy Barrier Representation -->
  <path d="M100,300 L250,300 L250,150 L550,150 L550,300 L700,300" 
        fill="none" stroke="#333" stroke-width="3" />
  
  <!-- Wave Function Before Barrier -->
  <path d="M100,300 Q 130,250 160,300 Q 190,350 220,300 Q 230,280 250,300" 
        fill="none" stroke="#1565C0" stroke-width="3" />
        
  <!-- Wave Function During Tunneling (reduced amplitude) -->
  <path d="M250,300 Q 280,290 310,300 Q 340,310 370,300 Q 400,290 430,300 Q 460,310 490,300 Q 520,290 550,300" 
        fill="none" stroke="#1565C0" stroke-width="2" stroke-dasharray="5,3" />
  
  <!-- Wave Function After Barrier -->
  <path d="M550,300 Q 580,250 610,300 Q 640,350 670,300 Q 685,275 700,300" 
        fill="none" stroke="#1565C0" stroke-width="3" />
  
  <!-- Barrier Labels -->
  <text x="400" y="130" font-family="Arial" font-size="14" font-weight="bold" text-anchor="middle">Energy Barrier</text>
  <text x="400" y="180" font-family="Arial" font-size="12" text-anchor="middle">(Controlled Potential Field)</text>
  
  <!-- Direction Arrows -->
  <polygon points="700,300 685,290 685,310" fill="#333" />
  <text x="730" y="300" font-family="Arial" font-size="14" text-anchor="middle">Direction</text>
  <text x="730" y="320" font-family="Arial" font-size="14" text-anchor="middle">of Travel</text>
  
  <!-- Component Labels -->
  <text x="175" y="380" font-family="Arial" font-size="14" font-weight="bold" text-anchor="middle">Incident Wave</text>
  <text x="175" y="400" font-family="Arial" font-size="12" text-anchor="middle">(Quantum Particles)</text>
  
  <text x="400" y="380" font-family="Arial" font-size="14" font-weight="bold" text-anchor="middle">Tunneling Region</text>
  <text x="400" y="400" font-family="Arial" font-size="12" text-anchor="middle">(Probability Leakage)</text>
  
  <text x="625" y="380" font-family="Arial" font-size="14" font-weight="bold" text-anchor="middle">Transmitted Wave</text>
  <text x="625" y="400" font-family="Arial" font-size="12" text-anchor="middle">(Propulsive Force)</text>
  
  <!-- Quantum Chamber Outline -->
  <rect x="50" y="80" width="700" height="350" rx="20" ry="20" 
        fill="none" stroke="#333" stroke-width="1" stroke-dasharray="10,5" />
  <text x="130" y="100" font-family="Arial" font-size="12" font-style="italic" text-anchor="start">Quantum Field Manipulation Chamber</text>
  
  <!-- Component Details -->
  <g id="details">
    <!-- Energy Source -->
    <circle cx="75" cy="250" r="20" fill="#FF9800" stroke="#333" stroke-width="1" />
    <text x="75" y="255" font-family="Arial" font-size="10" text-anchor="middle">Energy</text>
    <!-- Line to chamber -->
    <line x1="95" y1="250" x2="125" y2="250" stroke="#333" stroke-width="1" />
    
    <!-- Field Generators -->
    <rect x="250" y="100" width="30" height="50" fill="#4CAF50" stroke="#333" stroke-width="1" />
    <rect x="520" y="100" width="30" height="50" fill="#4CAF50" stroke="#333" stroke-width="1" />
    <text x="265" y="115" font-family="Arial" font-size="8" text-anchor="middle" fill="white">Field</text>
    <text x="265" y="125" font-family="Arial" font-size="8" text-anchor="middle" fill="white">Gen</text>
    <text x="535" y="115" font-family="Arial" font-size="8" text-anchor="middle" fill="white">Field</text>
    <text x="535" y="125" font-family="Arial" font-size="8" text-anchor="middle" fill="white">Gen</text>
    
    <!-- Field Lines -->
    <line x1="265" y1="150" x2="265" y2="195" stroke="#4CAF50" stroke-width="1" stroke-dasharray="3,2" />
    <line x1="535" y1="150" x2="535" y2="195" stroke="#4CAF50" stroke-width="1" stroke-dasharray="3,2" />
  </g>
  
  <!-- Technical Details -->
  <g id="technical-notes">
    <rect x="50" y="440" width="700" height="50" fill="#E3F2FD" stroke="#1565C0" stroke-width="1" />
    <text x="400" y="460" font-family="Arial" font-size="12" font-weight="bold" text-anchor="middle">
      Technical Specifications: Tunneling Efficiency: 99.7% | Mass-Tunneling Capacity: 10^12 particles/sec | Energy Barrier Height: 10^8 eV
    </text>
    <text x="400" y="480" font-family="Arial" font-size="12" text-anchor="middle">
      Directional Control: ±0.0001° precision | Field Stability: 99.9999% | Metamaterial Composition: Quantum-locked nanostructures
    </text>
  </g>
</svg> 