<svg xmlns="http://www.w3.org/2000/svg" width="600" height="400" viewBox="0 0 600 400">
  <rect width="600" height="400" fill="#f0f0f0" />
  
  <!-- Outer Housing -->
  <rect x="100" y="150" width="400" height="100" rx="10" ry="10" fill="#e0e0e0" stroke="#333" stroke-width="2" />
  
  <!-- Internal Components -->
  <g>
    <!-- Q-Force Core -->
    <circle cx="300" cy="200" r="40" fill="#d5e5f9" stroke="#333" stroke-width="1.5" />
    <circle cx="300" cy="200" r="25" fill="#f9d5e5" stroke="#333" stroke-width="1.5" />
    <circle cx="300" cy="200" r="15" fill="#aaffaa" stroke="#333" stroke-width="1" />
    
    <!-- Left Side (Energy Input) -->
    <rect x="130" y="180" width="60" height="40" rx="5" ry="5" fill="#f5f5f5" stroke="#333" stroke-width="1" />
    <text x="160" y="206" text-anchor="middle" font-family="Arial" font-size="10" fill="#333">Energy Input</text>
    
    <!-- Connecting tubes (left) -->
    <path d="M190,200 L260,200" fill="none" stroke="#333" stroke-width="1.5" />
    <circle cx="220" cy="200" r="8" fill="#d5e5f9" stroke="#333" stroke-width="1" />
    <circle cx="240" cy="200" r="8" fill="#d5e5f9" stroke="#333" stroke-width="1" />
    
    <!-- Right Side (Emitter) -->
    <rect x="410" y="180" width="60" height="40" rx="5" ry="5" fill="#f5f5f5" stroke="#333" stroke-width="1" />
    <text x="440" y="206" text-anchor="middle" font-family="Arial" font-size="10" fill="#333">Emitter</text>
    
    <!-- Connecting tubes (right) -->
    <path d="M340,200 L410,200" fill="none" stroke="#333" stroke-width="1.5" />
    <circle cx="360" cy="200" r="8" fill="#f9d5e5" stroke="#333" stroke-width="1" />
    <circle cx="380" cy="200" r="8" fill="#f9d5e5" stroke="#333" stroke-width="1" />
  </g>
  
  <!-- Field Effect Layers -->
  <g opacity="0.3">
    <ellipse cx="300" cy="200" rx="250" ry="20" fill="none" stroke="#aaffaa" stroke-width="1" stroke-dasharray="5,3" />
    <ellipse cx="300" cy="200" rx="230" ry="15" fill="none" stroke="#aaffaa" stroke-width="1" stroke-dasharray="5,3" />
    <ellipse cx="300" cy="200" rx="210" ry="10" fill="none" stroke="#aaffaa" stroke-width="1" stroke-dasharray="5,3" />
  </g>
  
  <!-- Control Systems -->
  <g>
    <rect x="200" y="120" width="200" height="20" rx="5" ry="5" fill="#f5f5f5" stroke="#333" stroke-width="1" />
    <text x="300" y="134" text-anchor="middle" font-family="Arial" font-size="10" fill="#333">Control Systems</text>
    
    <line x1="250" y1="140" x2="250" y2="150" stroke="#333" stroke-width="1" />
    <line x1="300" y1="140" x2="300" y2="150" stroke="#333" stroke-width="1" />
    <line x1="350" y1="140" x2="350" y2="150" stroke="#333" stroke-width="1" />
  </g>
  
  <!-- Cooling System -->
  <g>
    <rect x="200" y="260" width="200" height="20" rx="5" ry="5" fill="#f5f5f5" stroke="#333" stroke-width="1" />
    <text x="300" y="274" text-anchor="middle" font-family="Arial" font-size="10" fill="#333">Cooling Systems</text>
    
    <line x1="250" y1="250" x2="250" y2="260" stroke="#333" stroke-width="1" />
    <line x1="300" y1="250" x2="300" y2="260" stroke="#333" stroke-width="1" />
    <line x1="350" y1="250" x2="350" y2="260" stroke="#333" stroke-width="1" />
  </g>
  
  <!-- Field Energy Indicators -->
  <g opacity="0.6">
    <circle cx="470" cy="200" r="3" fill="#f9d5e5" />
    <circle cx="480" cy="200" r="4" fill="#f9d5e5" />
    <circle cx="492" cy="200" r="5" fill="#f9d5e5" />
    <circle cx="507" cy="200" r="6" fill="#f9d5e5" />
    <circle cx="525" cy="200" r="7" fill="#f9d5e5" />
  </g>
  
  <!-- Main Title -->
  <text x="300" y="330" text-anchor="middle" font-family="Arial" font-size="16" font-weight="bold" fill="#333">Q-Force Propulsion System Cross-Section</text>
  
  <!-- Component Labels -->
  <g font-family="Arial" font-size="12" fill="#333">
    <text x="300" y="88" text-anchor="middle">Quantum Field Generators</text>
    <line x1="300" y1="92" x2="300" y2="110" stroke="#333" stroke-width="1" />
    
    <text x="100" y="340" text-anchor="middle">Power Input</text>
    <line x1="100" y1="336" x2="130" y2="230" stroke="#333" stroke-width="1" />
    
    <text x="500" y="340" text-anchor="middle">Field Emission</text>
    <line x1="500" y1="336" x2="470" y2="230" stroke="#333" stroke-width="1" />
    
    <text x="300" y="180" text-anchor="middle">Q-Force Core</text>
  </g>
</svg> 