<svg xmlns="http://www.w3.org/2000/svg" width="600" height="400" viewBox="0 0 600 400">
  <rect width="600" height="400" fill="#f0f0f0" />
  
  <!-- Central Core -->
  <circle cx="300" cy="200" r="60" fill="#f9d5e5" stroke="#333" stroke-width="3" />
  <circle cx="300" cy="200" r="45" fill="#f5f5f5" stroke="#333" stroke-width="1" />
  <circle cx="300" cy="200" r="30" fill="#d5e5f9" stroke="#333" stroke-width="1" />
  <circle cx="300" cy="200" r="15" fill="#aaffaa" stroke="#333" stroke-width="1" />
  
  <!-- Ferromagnet Components -->
  <g stroke="#333" stroke-width="2">
    <rect x="250" y="150" width="20" height="100" fill="#d5e5f9" rx="2" />
    <rect x="330" y="150" width="20" height="100" fill="#d5e5f9" rx="2" />
    <rect x="250" y="150" width="100" height="20" fill="#d5e5f9" rx="2" />
    <rect x="250" y="230" width="100" height="20" fill="#d5e5f9" rx="2" />
  </g>
  
  <!-- Field Emitters -->
  <g fill="#aaffaa" stroke="#333">
    <circle cx="200" cy="120" r="15" />
    <circle cx="400" cy="120" r="15" />
    <circle cx="200" cy="280" r="15" />
    <circle cx="400" cy="280" r="15" />
    <circle cx="175" cy="200" r="15" />
    <circle cx="425" cy="200" r="15" />
  </g>
  
  <!-- Connection lines -->
  <g stroke="#777" stroke-width="1.5" stroke-dasharray="5,3">
    <line x1="215" y1="120" x2="250" y2="150" />
    <line x1="385" y1="120" x2="350" y2="150" />
    <line x1="215" y1="280" x2="250" y2="250" />
    <line x1="385" y1="280" x2="350" y2="250" />
    <line x1="190" y1="200" x2="240" y2="200" />
    <line x1="410" y1="200" x2="360" y2="200" />
  </g>
  
  <!-- Energy field visualization -->
  <g stroke="#aaffaa" fill="none" opacity="0.3">
    <circle cx="300" cy="200" r="75" />
    <circle cx="300" cy="200" r="90" />
    <circle cx="300" cy="200" r="105" />
    <circle cx="300" cy="200" r="120" />
  </g>
  
  <!-- Quantum field oscillation patterns -->
  <g stroke="#d5e5f9" stroke-width="1.5" fill="none" opacity="0.5">
    <path d="M240,120 C260,110 280,130 300,120 C320,110 340,130 360,120" />
    <path d="M240,280 C260,290 280,270 300,280 C320,290 340,270 360,280" />
    <path d="M230,140 C250,130 270,150 290,140 C310,130 330,150 350,140" />
    <path d="M230,260 C250,270 270,250 290,260 C310,270 330,250 350,260" />
  </g>
  
  <!-- Power indicators -->
  <g fill="#f9d5e5">
    <circle cx="300" cy="125" r="5" />
    <circle cx="300" cy="275" r="5" />
    <circle cx="225" cy="200" r="5" />
    <circle cx="375" cy="200" r="5" />
  </g>
  
  <!-- Title -->
  <text x="300" y="380" text-anchor="middle" font-family="Arial" font-size="16" fill="#333">Q-Force Generator Core</text>
  
  <!-- Technical details indicators -->
  <g stroke="#333" fill="none">
    <line x1="180" y1="350" x2="220" y2="290" />
    <line x1="420" y1="350" x2="380" y2="290" />
    <line x1="220" y1="80" x2="250" y2="140" />
    <line x1="380" y1="80" x2="350" y2="140" />
  </g>
  <g font-family="Arial" font-size="10" fill="#333">
    <text x="160" y="360" text-anchor="middle">Field Emitter</text>
    <text x="440" y="360" text-anchor="middle">Power Regulation</text>
    <text x="200" y="70" text-anchor="middle">Quantum Field</text>
    <text x="400" y="70" text-anchor="middle">Ferromagnet Array</text>
  </g>
</svg> 