<svg xmlns="http://www.w3.org/2000/svg" width="800" height="600" viewBox="0 0 800 600">
  <defs>
    <!-- Gradients for better visual appeal -->
    <linearGradient id="centerGradient" x1="0%" y1="0%" x2="100%" y2="100%">
      <stop offset="0%" style="stop-color:#663399;stop-opacity:1" />
      <stop offset="100%" style="stop-color:#4b0082;stop-opacity:1" />
    </linearGradient>
    
    <linearGradient id="hexGradient" x1="0%" y1="0%" x2="100%" y2="100%">
      <stop offset="0%" style="stop-color:#9370db;stop-opacity:1" />
      <stop offset="100%" style="stop-color:#6a5acd;stop-opacity:1" />
    </linearGradient>
    
    <linearGradient id="boxGradient" x1="0%" y1="0%" x2="0%" y2="100%">
      <stop offset="0%" style="stop-color:#f5f5f5;stop-opacity:1" />
      <stop offset="100%" style="stop-color:#e0e0e0;stop-opacity:1" />
    </linearGradient>
    
    <!-- Filters for shadow and glow effects -->
    <filter id="dropShadow" x="-20%" y="-20%" width="140%" height="140%">
      <feGaussianBlur in="SourceAlpha" stdDeviation="3" />
      <feOffset dx="2" dy="2" result="offsetblur" />
      <feComponentTransfer>
        <feFuncA type="linear" slope="0.3" />
      </feComponentTransfer>
      <feMerge>
        <feMergeNode />
        <feMergeNode in="SourceGraphic" />
      </feMerge>
    </filter>
    
    <filter id="glow" x="-20%" y="-20%" width="140%" height="140%">
      <feGaussianBlur stdDeviation="3" result="blur" />
      <feComposite in="SourceGraphic" in2="blur" operator="over" />
    </filter>
    
    <!-- Connector animation -->
    <linearGradient id="connectionGradient" x1="0%" y1="0%" x2="100%" y2="0%">
      <stop offset="0%" style="stop-color:#9370db;stop-opacity:0.1">
        <animate attributeName="offset" values="0;1" dur="3s" repeatCount="indefinite" />
      </stop>
      <stop offset="25%" style="stop-color:#9370db;stop-opacity:0.7">
        <animate attributeName="offset" values="0.25;1.25" dur="3s" repeatCount="indefinite" />
      </stop>
      <stop offset="50%" style="stop-color:#9370db;stop-opacity:0.1">
        <animate attributeName="offset" values="0.5;1.5" dur="3s" repeatCount="indefinite" />
      </stop>
    </linearGradient>
  </defs>
  
  <style>
    text { font-family: 'Helvetica Neue', Helvetica, Arial, sans-serif; }
    .title { font-size: 28px; font-weight: bold; fill: #333; }
    .subtitle { font-size: 18px; fill: #555; }
    .hexTitle { font-size: 16px; font-weight: bold; fill: white; }
    .hexSubtitle { font-size: 12px; fill: white; }
    .label { font-size: 14px; fill: #444; }
    .boxTitle { font-size: 16px; font-weight: bold; fill: #333; }
  </style>
  
  <!-- Background -->
  <rect x="0" y="0" width="800" height="600" fill="#f9f9f9" />
  
  <!-- Title with shadow -->
  <g filter="url(#dropShadow)">
    <text x="400" y="40" text-anchor="middle" class="title">Quantum Propulsion System: Applications</text>
  </g>
  <text x="400" y="65" text-anchor="middle" class="subtitle">Revolutionary applications of quantum propulsion technology across multiple domains</text>
  
  <!-- Connection lines with gradient animation -->
  <g stroke="url(#connectionGradient)" stroke-width="3" stroke-dasharray="5,5" fill="none">
    <!-- Center to Deep Space -->
    <path d="M400,300 L400,160" />
    <!-- Center to Space Mining -->
    <path d="M440,280 L550,220" />
    <!-- Center to Air Travel -->
    <path d="M440,320 L550,380" />
    <!-- Center to Planet Colonization -->
    <path d="M400,340 L400,440" />
    <!-- Center to Military -->
    <path d="M360,320 L250,380" />
    <!-- Center to Heavy Transport -->
    <path d="M360,280 L250,220" />
  </g>
  
  <!-- Applications Hexagon Layout -->
  <!-- Center -->
  <g transform="translate(400, 300)">
    <polygon points="0,-80 69.3,-40 69.3,40 0,80 -69.3,40 -69.3,-40" fill="url(#centerGradient)" stroke="#333" stroke-width="2" filter="url(#dropShadow)">
      <animate attributeName="opacity" values="1;0.8;1" dur="3s" repeatCount="indefinite" />
    </polygon>
    <text x="0" y="0" text-anchor="middle" fill="white" class="hexTitle">Quantum</text>
    <text x="0" y="25" text-anchor="middle" fill="white" class="hexTitle">Propulsion</text>
  </g>
  
  <!-- Deep Space Exploration -->
  <g transform="translate(400, 160)">
    <polygon points="0,-60 52,-30 52,30 0,60 -52,30 -52,-60" fill="url(#hexGradient)" stroke="#333" stroke-width="2" filter="url(#dropShadow)">
      <animate attributeName="opacity" values="0.9;0.7;0.9" dur="4s" repeatCount="indefinite" />
    </polygon>
    <text x="0" y="-10" text-anchor="middle" fill="white" class="hexTitle">Deep Space</text>
    <text x="0" y="15" text-anchor="middle" fill="white" class="hexTitle">Exploration</text>
    <text x="0" y="40" text-anchor="middle" fill="white" class="hexSubtitle">Interstellar travel</text>
    
    <!-- Space icon -->
    <circle cx="-30" cy="-25" r="10" fill="white" opacity="0.7" />
    <circle cx="-26" cy="-27" r="3" fill="#6a5acd" />
  </g>
  
  <!-- Space Mining -->
  <g transform="translate(550, 220)">
    <polygon points="0,-60 52,-30 52,30 0,60 -52,30 -52,-30" fill="url(#hexGradient)" stroke="#333" stroke-width="2" filter="url(#dropShadow)">
      <animate attributeName="opacity" values="0.9;0.7;0.9" dur="4s" repeatCount="indefinite" />
    </polygon>
    <text x="0" y="0" text-anchor="middle" fill="white" class="hexTitle">Space Mining</text>
    <text x="0" y="25" text-anchor="middle" fill="white" class="hexSubtitle">Industrial-scale operations</text>
    
    <!-- Mining icon -->
    <path d="M-25,-10 L-15,-20 L-5,-10 L-15,0 Z" fill="white" opacity="0.7" />
  </g>
  
  <!-- Air Travel -->
  <g transform="translate(550, 380)">
    <polygon points="0,-60 52,-30 52,30 0,60 -52,30 -52,-30" fill="url(#hexGradient)" stroke="#333" stroke-width="2" filter="url(#dropShadow)">
      <animate attributeName="opacity" values="0.9;0.7;0.9" dur="4s" repeatCount="indefinite" />
    </polygon>
    <text x="0" y="0" text-anchor="middle" fill="white" class="hexTitle">Air Travel</text>
    <text x="0" y="25" text-anchor="middle" fill="white" class="hexSubtitle">Global transportation</text>
    
    <!-- Plane icon -->
    <path d="M-30,-5 L-10,-10 L0,0 L-10,10 L-30,5 Z" fill="white" opacity="0.7" />
  </g>
  
  <!-- Planet Colonization -->
  <g transform="translate(400, 440)">
    <polygon points="0,-60 52,-30 52,30 0,60 -52,30 -52,-30" fill="url(#hexGradient)" stroke="#333" stroke-width="2" filter="url(#dropShadow)">
      <animate attributeName="opacity" values="0.9;0.7;0.9" dur="4s" repeatCount="indefinite" />
    </polygon>
    <text x="0" y="-10" text-anchor="middle" fill="white" class="hexTitle">Planet</text>
    <text x="0" y="15" text-anchor="middle" fill="white" class="hexTitle">Colonization</text>
    <text x="0" y="40" text-anchor="middle" fill="white" class="hexSubtitle">Creating new habitats</text>
    
    <!-- Planet icon -->
    <circle cx="-30" cy="-10" r="12" fill="white" opacity="0.7" />
    <ellipse cx="-30" cy="-10" rx="12" ry="5" fill="none" stroke="#6a5acd" stroke-width="1.5" />
  </g>
  
  <!-- Military Applications -->
  <g transform="translate(250, 380)">
    <polygon points="0,-60 52,-30 52,30 0,60 -52,30 -52,-30" fill="url(#hexGradient)" stroke="#333" stroke-width="2" filter="url(#dropShadow)">
      <animate attributeName="opacity" values="0.9;0.7;0.9" dur="4s" repeatCount="indefinite" />
    </polygon>
    <text x="0" y="-10" text-anchor="middle" fill="white" class="hexTitle">Military</text>
    <text x="0" y="15" text-anchor="middle" fill="white" class="hexTitle">Applications</text>
    <text x="0" y="40" text-anchor="middle" fill="white" class="hexSubtitle">Defense systems</text>
    
    <!-- Shield icon -->
    <path d="M-30,-10 L-20,-20 L-10,-10 L-20,0 Z" fill="white" opacity="0.7" />
  </g>
  
  <!-- Heavy Transport -->
  <g transform="translate(250, 220)">
    <polygon points="0,-60 52,-30 52,30 0,60 -52,30 -52,-30" fill="url(#hexGradient)" stroke="#333" stroke-width="2" filter="url(#dropShadow)">
      <animate attributeName="opacity" values="0.9;0.7;0.9" dur="4s" repeatCount="indefinite" />
    </polygon>
    <text x="0" y="-10" text-anchor="middle" fill="white" class="hexTitle">Heavy</text>
    <text x="0" y="15" text-anchor="middle" fill="white" class="hexTitle">Transport</text>
    <text x="0" y="40" text-anchor="middle" fill="white" class="hexSubtitle">Commercial logistics</text>
    
    <!-- Cargo icon -->
    <rect x="-35" y="-15" width="20" height="15" fill="white" opacity="0.7" />
  </g>
  
  <!-- Key Advantages Box -->
  <g transform="translate(660, 500)">
    <rect x="-150" y="-80" width="300" height="160" fill="url(#boxGradient)" stroke="#444" stroke-width="1" rx="15" ry="15" filter="url(#dropShadow)" />
    <text x="0" y="-55" text-anchor="middle" class="boxTitle">Key Advantages</text>
    <text x="-140" y="-25" text-anchor="start" class="label">• Cost reduction: 100x lower than chemical rockets</text>
    <text x="-140" y="0" text-anchor="start" class="label">• No need for launch facilities or boosters</text>
    <text x="-140" y="25" text-anchor="start" class="label">• Radiation protection for crew safety</text>
    <text x="-140" y="50" text-anchor="start" class="label">• Environmental impact: zero emissions</text>
    
    <!-- Advantage icon -->
    <g transform="translate(-120, -55)">
      <circle cx="0" cy="0" r="12" fill="#6a5acd" opacity="0.9" />
      <text x="0" y="5" text-anchor="middle" fill="white" font-size="14" font-weight="bold">+</text>
    </g>
  </g>
  
  <!-- Technology Timeline -->
  <g transform="translate(140, 500)">
    <rect x="-130" y="-80" width="260" height="160" fill="url(#boxGradient)" stroke="#444" stroke-width="1" rx="15" ry="15" filter="url(#dropShadow)" />
    <text x="0" y="-55" text-anchor="middle" class="boxTitle">Development Timeline</text>
    
    <!-- Timeline -->
    <line x1="-100" y1="-25" x2="100" y2="-25" stroke="#6a5acd" stroke-width="2" />
    <circle cx="-80" cy="-25" r="6" fill="#6a5acd" />
    <circle cx="-30" cy="-25" r="6" fill="#6a5acd" />
    <circle cx="20" cy="-25" r="6" fill="#6a5acd" />
    <circle cx="70" cy="-25" r="6" fill="#6a5acd" />
    
    <text x="-80" y="-5" text-anchor="middle" class="label">2025</text>
    <text x="-30" y="-5" text-anchor="middle" class="label">2030</text>
    <text x="20" y="-5" text-anchor="middle" class="label">2035</text>
    <text x="70" y="-5" text-anchor="middle" class="label">2040</text>
    
    <text x="-80" y="15" text-anchor="middle" font-size="10" fill="#555">Prototype</text>
    <text x="-30" y="15" text-anchor="middle" font-size="10" fill="#555">Commercial</text>
    <text x="20" y="15" text-anchor="middle" font-size="10" fill="#555">Manned</text>
    <text x="70" y="15" text-anchor="middle" font-size="10" fill="#555">Interstellar</text>
    
    <text x="-80" y="30" text-anchor="middle" font-size="10" fill="#555">Testing</text>
    <text x="-30" y="30" text-anchor="middle" font-size="10" fill="#555">Drones</text>
    <text x="20" y="30" text-anchor="middle" font-size="10" fill="#555">Spacecraft</text>
    <text x="70" y="30" text-anchor="middle" font-size="10" fill="#555">Capability</text>
    
    <!-- Timeline animation -->
    <rect x="-100" y="-27" width="0" height="4" fill="#4b0082">
      <animate attributeName="width" values="0;200" dur="5s" repeatCount="1" fill="freeze" />
    </rect>
  </g>
  
  <!-- Progress indicator -->
  <g transform="translate(400, 520)">
    <text x="0" y="30" text-anchor="middle" font-size="12" fill="#555">Development in progress: Advanced prototype phase</text>
  </g>
</svg> 