<svg xmlns="http://www.w3.org/2000/svg" width="600" height="400" viewBox="0 0 600 400">
  <rect width="600" height="400" fill="#f0f0f0" />
  <path d="M300,50 L350,200 L400,350 L300,300 L200,350 L250,200 Z" fill="#d3d3d3" stroke="#333" stroke-width="3" />
  <circle cx="300" cy="180" r="40" fill="#f9d5e5" stroke="#333" stroke-width="2" />
  <path d="M200,350 C150,300 150,250 180,200 C200,170 250,190 300,200 C350,210 400,170 420,200 C450,250 450,300 400,350 Z" fill="#f5f5f5" stroke="#333" stroke-width="2" />
  <path d="M250,120 L350,120" stroke="#333" stroke-width="2" />
  <ellipse cx="300" cy="300" rx="100" ry="20" fill="#ddd" stroke="#333" stroke-width="1" />
  <path d="M250,350 L220,380 M350,350 L380,380" stroke="#777" stroke-width="3" />
  <text x="300" y="380" text-anchor="middle" font-family="Arial" font-size="16" fill="#333">Traditional Chemical Spacecraft</text>
  <g transform="translate(400, 100)">
    <path d="M0,0 L50,10 L60,40 L20,30 Z" fill="#ff6b6b" stroke="#333" />
    <circle cx="30" cy="20" r="5" fill="#555" />
  </g>
  <g transform="translate(160, 100)">
    <path d="M0,0 L-50,10 L-60,40 L-20,30 Z" fill="#ff6b6b" stroke="#333" />
    <circle cx="-30" cy="20" r="5" fill="#555" />
  </g>
  <g transform="translate(290, 50)">
    <line x1="0" y1="0" x2="0" y2="30" stroke="#333" stroke-width="2" />
    <circle cx="10" cy="10" r="5" fill="#fff" stroke="#333" />
  </g>
  <g transform="translate(220, 270)">
    <path d="M0,0 C20,-10 40,-10 60,0" stroke="#777" stroke-width="1" fill="none" />
    <path d="M0,10 C20,0 40,0 60,10" stroke="#777" stroke-width="1" fill="none" />
    <path d="M0,20 C20,10 40,10 60,20" stroke="#777" stroke-width="1" fill="none" />
  </g>
</svg> 