<svg xmlns="http://www.w3.org/2000/svg" width="700" height="500" viewBox="0 0 700 500">
  <rect width="700" height="500" fill="#f0f0f0" />
  
  <!-- Habitat Structure - Dome -->
  <ellipse cx="350" cy="250" rx="250" ry="100" fill="#d5e5f9" stroke="#333" stroke-width="2" opacity="0.8" />
  <path d="M100,250 A250,250 0 0,1 600,250" fill="#d5e5f9" stroke="#333" stroke-width="2" opacity="0.7" />
  
  <!-- Internal Living Areas -->
  <g>
    <!-- Central Area -->
    <circle cx="350" cy="250" r="60" fill="#aaffaa" stroke="#333" stroke-width="1.5" opacity="0.8" />
    <text x="350" y="250" text-anchor="middle" font-family="Arial" font-size="14" fill="#333">Common Area</text>
    
    <!-- Living Pods -->
    <g opacity="0.8">
      <!-- Pod 1 -->
      <circle cx="250" cy="220" r="30" fill="#f9d5e5" stroke="#333" stroke-width="1" />
      <text x="250" y="220" text-anchor="middle" font-family="Arial" font-size="10" fill="#333">Living Pod 1</text>
      
      <!-- Pod 2 -->
      <circle cx="450" cy="220" r="30" fill="#f9d5e5" stroke="#333" stroke-width="1" />
      <text x="450" y="220" text-anchor="middle" font-family="Arial" font-size="10" fill="#333">Living Pod 2</text>
      
      <!-- Pod 3 -->
      <circle cx="350" cy="150" r="30" fill="#f9d5e5" stroke="#333" stroke-width="1" />
      <text x="350" y="150" text-anchor="middle" font-family="Arial" font-size="10" fill="#333">Living Pod 3</text>
      
      <!-- Pod 4 -->
      <circle cx="250" cy="290" r="30" fill="#f9d5e5" stroke="#333" stroke-width="1" />
      <text x="250" y="290" text-anchor="middle" font-family="Arial" font-size="10" fill="#333">Living Pod 4</text>
      
      <!-- Pod 5 -->
      <circle cx="450" cy="290" r="30" fill="#f9d5e5" stroke="#333" stroke-width="1" />
      <text x="450" y="290" text-anchor="middle" font-family="Arial" font-size="10" fill="#333">Living Pod 5</text>
    </g>
    
    <!-- Connecting Corridors -->
    <g stroke="#333" stroke-width="1.5" fill="none">
      <path d="M300,250 L280,220" />
      <path d="M400,250 L420,220" />
      <path d="M350,190 L350,180" />
      <path d="M300,250 L280,290" />
      <path d="M400,250 L420,290" />
    </g>
  </g>
  
  <!-- Agricultural Areas -->
  <g opacity="0.7">
    <path d="M180,270 C200,280 220,290 260,290 C300,290 320,280 340,270" fill="#d5f9d5" stroke="#333" stroke-width="1" />
    <path d="M360,270 C380,280 400,290 440,290 C480,290 500,280 520,270" fill="#d5f9d5" stroke="#333" stroke-width="1" />
    <text x="260" y="350" text-anchor="middle" font-family="Arial" font-size="12" fill="#333">Agricultural Zone A</text>
    <text x="440" y="350" text-anchor="middle" font-family="Arial" font-size="12" fill="#333">Agricultural Zone B</text>
  </g>
  
  <!-- Bio-Resonance Field Generators -->
  <g>
    <circle cx="150" cy="250" r="15" fill="#e0e0e0" stroke="#333" stroke-width="1" />
    <circle cx="550" cy="250" r="15" fill="#e0e0e0" stroke="#333" stroke-width="1" />
    <circle cx="350" cy="350" r="15" fill="#e0e0e0" stroke="#333" stroke-width="1" />
    
    <text x="150" y="230" text-anchor="middle" font-family="Arial" font-size="10" fill="#333">Field Gen 1</text>
    <text x="550" y="230" text-anchor="middle" font-family="Arial" font-size="10" fill="#333">Field Gen 2</text>
    <text x="350" cy="330" text-anchor="middle" font-family="Arial" font-size="10" fill="#333">Field Gen 3</text>
  </g>
  
  <!-- Bio-Resonance Fields -->
  <g stroke-dasharray="5,3" fill="none" opacity="0.4">
    <ellipse cx="350" cy="250" rx="270" ry="120" stroke="#aaffaa" stroke-width="1" />
    <ellipse cx="350" cy="250" rx="280" ry="130" stroke="#aaffaa" stroke-width="1" />
    <ellipse cx="350" cy="250" rx="290" ry="140" stroke="#aaffaa" stroke-width="1" />
  </g>
  
  <!-- External Environment -->
  <g opacity="0.5">
    <rect x="50" y="365" width="600" height="30" fill="#cc9966" stroke="#996633" stroke-width="1" />
    <text x="350" y="385" text-anchor="middle" font-family="Arial" font-size="14" fill="#333">Lunar/Martian Regolith</text>
  </g>
  
  <!-- Main Title -->
  <text x="350" y="50" text-anchor="middle" font-family="Arial" font-size="20" font-weight="bold" fill="#333">Bio-Resonance Habitat System</text>
  
  <!-- Legend -->
  <g transform="translate(500, 400)">
    <rect x="0" y="0" width="150" height="80" fill="white" stroke="#333" stroke-width="1" />
    <text x="75" y="20" text-anchor="middle" font-family="Arial" font-size="12" font-weight="bold" fill="#333">Legend</text>
    
    <rect x="10" y="30" width="15" height="15" fill="#d5e5f9" opacity="0.8" />
    <text x="35" y="42" text-anchor="start" font-family="Arial" font-size="10" fill="#333">Habitat Structure</text>
    
    <rect x="10" y="50" width="15" height="15" fill="#aaffaa" opacity="0.8" />
    <text x="35" y="62" text-anchor="start" font-family="Arial" font-size="10" fill="#333">Common Areas</text>
    
    <rect x="10" y="70" width="15" height="15" fill="#f9d5e5" opacity="0.8" />
    <text x="35" y="82" text-anchor="start" font-family="Arial" font-size="10" fill="#333">Living Pods</text>
  </g>
  
  <!-- Bee Animation Integration Point -->
  <g transform="translate(100, 400)">
    <rect x="0" y="0" width="150" height="80" fill="white" stroke="#333" stroke-width="1" />
    <text x="75" y="20" text-anchor="middle" font-family="Arial" font-size="12" font-weight="bold" fill="#333">Bio-Indicator</text>
    <text x="75" y="40" text-anchor="middle" font-family="Arial" font-size="10" fill="#333">Bee Animation</text>
    <text x="75" y="60" text-anchor="middle" font-family="Arial" font-size="10" fill="#333">(Integration Point)</text>
    
    <circle cx="75" cy="45" r="20" fill="none" stroke="#333" stroke-width="1" stroke-dasharray="3,3" />
  </g>
</svg> 