<svg xmlns="http://www.w3.org/2000/svg" width="600" height="500" viewBox="0 0 600 500">
  <rect width="600" height="500" fill="#f0f0f0" />
  
  <!-- Title -->
  <text x="300" y="50" text-anchor="middle" font-family="Arial" font-size="20" font-weight="bold" fill="#333">
    Bio-Resonance Honeycomb Structure
  </text>
  
  <!-- Main Honeycomb Structure -->
  <g transform="translate(300, 250)">
    <!-- Central Hexagon -->
    <path d="M0,-60 L52,-30 L52,30 L0,60 L-52,30 L-52,-30 Z" fill="#f9d5e5" stroke="#333" stroke-width="2" />
    <text x="0" y="5" text-anchor="middle" font-family="Arial" font-size="12" fill="#333">Central Hub</text>
    
    <!-- Outer Hexagons - First Ring -->
    <!-- Top Hexagon -->
    <path d="M0,-120 L52,-90 L52,-30 L0,0 L-52,-30 L-52,-90 Z" fill="#d5e5f9" stroke="#333" stroke-width="1.5" />
    <text x="0" y="-75" text-anchor="middle" font-family="Arial" font-size="10" fill="#333">Living Area 1</text>
    
    <!-- Top Right Hexagon -->
    <path d="M104,-60 L156,-30 L156,30 L104,60 L52,30 L52,-30 Z" fill="#d5e5f9" stroke="#333" stroke-width="1.5" />
    <text x="104" y="5" text-anchor="middle" font-family="Arial" font-size="10" fill="#333">Living Area 2</text>
    
    <!-- Bottom Right Hexagon -->
    <path d="M52,90 L104,60 L104,120 L52,150 L0,120 L0,60 Z" fill="#d5e5f9" stroke="#333" stroke-width="1.5" />
    <text x="52" y="105" text-anchor="middle" font-family="Arial" font-size="10" fill="#333">Living Area 3</text>
    
    <!-- Bottom Hexagon -->
    <path d="M0,120 L52,90 L52,150 L0,180 L-52,150 L-52,90 Z" fill="#d5e5f9" stroke="#333" stroke-width="1.5" />
    <text x="0" y="135" text-anchor="middle" font-family="Arial" font-size="10" fill="#333">Living Area 4</text>
    
    <!-- Bottom Left Hexagon -->
    <path d="M-104,60 L-52,30 L-52,90 L-104,120 L-156,90 L-156,30 Z" fill="#d5e5f9" stroke="#333" stroke-width="1.5" />
    <text x="-104" y="75" text-anchor="middle" font-family="Arial" font-size="10" fill="#333">Living Area 5</text>
    
    <!-- Top Left Hexagon -->
    <path d="M-104,-60 L-52,-90 L-52,-30 L-104,0 L-156,-30 L-156,-90 Z" fill="#d5e5f9" stroke="#333" stroke-width="1.5" />
    <text x="-104" y="-45" text-anchor="middle" font-family="Arial" font-size="10" fill="#333">Living Area 6</text>
  </g>
  
  <!-- Resonance Field Indicators -->
  <g transform="translate(300, 250)" opacity="0.5" stroke-dasharray="5,3" fill="none">
    <circle cx="0" cy="0" r="170" stroke="#aaffaa" stroke-width="1" />
    <circle cx="0" cy="0" r="180" stroke="#aaffaa" stroke-width="1" />
    <circle cx="0" cy="0" r="190" stroke="#aaffaa" stroke-width="1" />
  </g>
  
  <!-- Bio-Resonance Generators -->
  <g transform="translate(300, 250)">
    <circle cx="0" cy="200" r="15" fill="#e0e0e0" stroke="#333" stroke-width="1" />
    <circle cx="173" cy="-100" r="15" fill="#e0e0e0" stroke="#333" stroke-width="1" />
    <circle cx="-173" cy="-100" r="15" fill="#e0e0e0" stroke="#333" stroke-width="1" />
    
    <text x="0" y="220" text-anchor="middle" font-family="Arial" font-size="10" fill="#333">Field Gen 1</text>
    <text x="173" y="-80" text-anchor="middle" font-family="Arial" font-size="10" fill="#333">Field Gen 2</text>
    <text x="-173" y="-80" text-anchor="middle" font-family="Arial" font-size="10" fill="#333">Field Gen 3</text>
  </g>
  
  <!-- Agricultural/Work Pods -->
  <g transform="translate(300, 250)" opacity="0.7">
    <!-- Agricultural Pod 1 -->
    <path d="M104,-180 L156,-150 L156,-90 L104,-60 L52,-90 L52,-150 Z" fill="#d5f9d5" stroke="#333" stroke-width="1" />
    <text x="104" y="-120" text-anchor="middle" font-family="Arial" font-size="10" fill="#333">Ag Pod 1</text>
    
    <!-- Agricultural Pod 2 -->
    <path d="M-104,-180 L-52,-150 L-52,-90 L-104,-60 L-156,-90 L-156,-150 Z" fill="#d5f9d5" stroke="#333" stroke-width="1" />
    <text x="-104" y="-120" text-anchor="middle" font-family="Arial" font-size="10" fill="#333">Ag Pod 2</text>
    
    <!-- Work Pod 1 -->
    <path d="M156,30 L208,60 L208,120 L156,150 L104,120 L104,60 Z" fill="#d5e9f9" stroke="#333" stroke-width="1" />
    <text x="156" y="90" text-anchor="middle" font-family="Arial" font-size="10" fill="#333">Work Pod 1</text>
    
    <!-- Work Pod 2 -->
    <path d="M-156,30 L-104,60 L-104,120 L-156,150 L-208,120 L-208,60 Z" fill="#d5e9f9" stroke="#333" stroke-width="1" />
    <text x="-156" y="90" text-anchor="middle" font-family="Arial" font-size="10" fill="#333">Work Pod 2</text>
  </g>
  
  <!-- Bee Animation Integration -->
  <g transform="translate(100, 400)">
    <rect x="0" y="0" width="150" height="80" fill="white" stroke="#333" stroke-width="1" />
    <text x="75" y="20" text-anchor="middle" font-family="Arial" font-size="12" font-weight="bold" fill="#333">Bio-Indicator</text>
    <text x="75" y="40" text-anchor="middle" font-family="Arial" font-size="10" fill="#333">Bee Animation</text>
    <text x="75" y="60" text-anchor="middle" font-family="Arial" font-size="10" fill="#333">(Integration Point)</text>
    
    <circle cx="75" cy="45" r="20" fill="none" stroke="#333" stroke-width="1" stroke-dasharray="3,3" />
  </g>
  
  <!-- Legend -->
  <g transform="translate(425, 375)">
    <rect x="0" y="0" width="150" height="110" fill="white" stroke="#333" stroke-width="1" />
    <text x="75" y="20" text-anchor="middle" font-family="Arial" font-size="12" font-weight="bold" fill="#333">Legend</text>
    
    <rect x="10" y="30" width="15" height="15" fill="#f9d5e5" />
    <text x="35" y="42" text-anchor="start" font-family="Arial" font-size="10" fill="#333">Central Hub</text>
    
    <rect x="10" y="50" width="15" height="15" fill="#d5e5f9" />
    <text x="35" y="62" text-anchor="start" font-family="Arial" font-size="10" fill="#333">Living Areas</text>
    
    <rect x="10" y="70" width="15" height="15" fill="#d5f9d5" />
    <text x="35" y="82" text-anchor="start" font-family="Arial" font-size="10" fill="#333">Agricultural Pods</text>
    
    <rect x="10" y="90" width="15" height="15" fill="#d5e9f9" />
    <text x="35" y="102" text-anchor="start" font-family="Arial" font-size="10" fill="#333">Work Pods</text>
  </g>
  
  <!-- Connector Lines for Bio-Resonance Field -->
  <g transform="translate(300, 250)" stroke="#333" stroke-width="0.5" stroke-dasharray="3,2" opacity="0.6">
    <line x1="0" y1="0" x2="0" y2="185" />
    <line x1="0" y1="0" x2="158" y2="-115" />
    <line x1="0" y1="0" x2="-158" y2="-115" />
  </g>
</svg> 