<svg width="800" height="600" viewBox="0 0 800 600" xmlns="http://www.w3.org/2000/svg">
  <rect width="800" height="600" fill="white" />
  
  <!-- Neural Interface Core -->
  <g transform="translate(400, 300)">
    <circle cx="0" cy="0" r="80" fill="#ffffff" stroke="#333333" stroke-width="2" />
    <circle cx="0" cy="0" r="60" fill="#7aaddb" opacity="0.7" />
    <text x="0" y="0" text-anchor="middle" dominant-baseline="middle" font-family="Arial" font-size="16" font-weight="bold" fill="#333333">Neural Interface Core</text>
    
    <!-- Input Processors -->
    <g transform="translate(-150, -180)">
      <rect x="-70" y="-30" width="140" height="60" rx="10" ry="10" fill="#5090c8" stroke="#333333" stroke-width="1.5" />
      <text x="0" y="0" text-anchor="middle" dominant-baseline="middle" font-family="Arial" font-size="14" fill="#333333">Input Processors</text>
      
      <!-- Connection to Core -->
      <path d="M0,30 Q75,90 150,180" stroke="#5090c8" stroke-width="2" fill="none" stroke-dasharray="5,3" />
    </g>
    
    <!-- Output Processors -->
    <g transform="translate(150, -180)">
      <rect x="-70" y="-30" width="140" height="60" rx="10" ry="10" fill="#5090c8" stroke="#333333" stroke-width="1.5" />
      <text x="0" y="0" text-anchor="middle" dominant-baseline="middle" font-family="Arial" font-size="14" fill="#333333">Output Processors</text>
      
      <!-- Connection to Core -->
      <path d="M0,30 Q-75,90 -150,180" stroke="#5090c8" stroke-width="2" fill="none" stroke-dasharray="5,3" />
    </g>
    
    <!-- Neural Pattern Matching -->
    <g transform="translate(200, 0)">
      <rect x="-70" y="-30" width="140" height="60" rx="10" ry="10" fill="#5090c8" stroke="#333333" stroke-width="1.5" />
      <text x="0" y="0" text-anchor="middle" dominant-baseline="middle" font-family="Arial" font-size="14" fill="#333333">Neural Pattern</text>
      <text x="0" y="20" text-anchor="middle" dominant-baseline="middle" font-family="Arial" font-size="14" fill="#333333">Matching</text>
      
      <!-- Connection to Core -->
      <path d="M-70,0 L-120,0" stroke="#5090c8" stroke-width="2" fill="none" />
    </g>
    
    <!-- Adaptive Learning -->
    <g transform="translate(-200, 0)">
      <rect x="-70" y="-30" width="140" height="60" rx="10" ry="10" fill="#5090c8" stroke="#333333" stroke-width="1.5" />
      <text x="0" y="0" text-anchor="middle" dominant-baseline="middle" font-family="Arial" font-size="14" fill="#333333">Adaptive</text>
      <text x="0" y="20" text-anchor="middle" dominant-baseline="middle" font-family="Arial" font-size="14" fill="#333333">Learning</text>
      
      <!-- Connection to Core -->
      <path d="M70,0 L120,0" stroke="#5090c8" stroke-width="2" fill="none" />
    </g>
    
    <!-- Feedback Loop -->
    <g transform="translate(0, 180)">
      <rect x="-90" y="-30" width="180" height="60" rx="10" ry="10" fill="#5090c8" stroke="#333333" stroke-width="1.5" />
      <text x="0" y="0" text-anchor="middle" dominant-baseline="middle" font-family="Arial" font-size="14" fill="#333333">Neural Feedback Loop</text>
      
      <!-- Connection to Core -->
      <path d="M0,-30 L0,-80" stroke="#5090c8" stroke-width="2" fill="none" />
    </g>
    
    <!-- Neural Data Storage -->
    <g transform="translate(-150, 100)">
      <rect x="-60" y="-25" width="120" height="50" rx="8" ry="8" fill="#7aaddb" stroke="#333333" stroke-width="1.5" opacity="0.7" />
      <text x="0" y="0" text-anchor="middle" dominant-baseline="middle" font-family="Arial" font-size="12" fill="#333333">Neural Data</text>
      <text x="0" y="16" text-anchor="middle" dominant-baseline="middle" font-family="Arial" font-size="12" fill="#333333">Storage</text>
      
      <!-- Connection to Core -->
      <path d="M50,0 Q90,30 150,-100" stroke="#7aaddb" stroke-width="1.5" fill="none" stroke-dasharray="4,2" />
    </g>
    
    <!-- Interface Security -->
    <g transform="translate(150, 100)">
      <rect x="-60" y="-25" width="120" height="50" rx="8" ry="8" fill="#7aaddb" stroke="#333333" stroke-width="1.5" opacity="0.7" />
      <text x="0" y="0" text-anchor="middle" dominant-baseline="middle" font-family="Arial" font-size="12" fill="#333333">Interface</text>
      <text x="0" y="16" text-anchor="middle" dominant-baseline="middle" font-family="Arial" font-size="12" fill="#333333">Security</text>
      
      <!-- Connection to Core -->
      <path d="M-50,0 Q-90,30 -150,-100" stroke="#7aaddb" stroke-width="1.5" fill="none" stroke-dasharray="4,2" />
    </g>
  </g>
  
  <!-- External Systems -->
  <!-- Biological Interface -->
  <g transform="translate(170, 100)">
    <circle cx="0" cy="0" r="50" fill="#f0f0f0" stroke="#333333" stroke-width="1.5" />
    <text x="0" y="-10" text-anchor="middle" font-family="Arial" font-size="12" fill="#333333">Biological</text>
    <text x="0" y="10" text-anchor="middle" font-family="Arial" font-size="12" fill="#333333">Interface</text>
    
    <!-- Connection to Input Processors -->
    <path d="M35,35 L170,90" stroke="#5090c8" stroke-width="1.5" fill="none" />
  </g>
  
  <!-- Virtual Environment -->
  <g transform="translate(630, 100)">
    <circle cx="0" cy="0" r="50" fill="#f0f0f0" stroke="#333333" stroke-width="1.5" />
    <text x="0" y="-10" text-anchor="middle" font-family="Arial" font-size="12" fill="#333333">Virtual</text>
    <text x="0" y="10" text-anchor="middle" font-family="Arial" font-size="12" fill="#333333">Environment</text>
    
    <!-- Connection to Output Processors -->
    <path d="M-35,35 L-170,90" stroke="#5090c8" stroke-width="1.5" fill="none" />
  </g>
  
  <!-- Quantum Processing -->
  <g transform="translate(170, 500)">
    <circle cx="0" cy="0" r="50" fill="#f0f0f0" stroke="#333333" stroke-width="1.5" />
    <text x="0" y="-10" text-anchor="middle" font-family="Arial" font-size="12" fill="#333333">Quantum</text>
    <text x="0" y="10" text-anchor="middle" font-family="Arial" font-size="12" fill="#333333">Processing</text>
    
    <!-- Connection to Adaptive Learning -->
    <path d="M35,-35 L170,-170" stroke="#5090c8" stroke-width="1.5" fill="none" />
  </g>
  
  <!-- External APIs -->
  <g transform="translate(630, 500)">
    <circle cx="0" cy="0" r="50" fill="#f0f0f0" stroke="#333333" stroke-width="1.5" />
    <text x="0" y="-10" text-anchor="middle" font-family="Arial" font-size="12" fill="#333333">External</text>
    <text x="0" y="10" text-anchor="middle" font-family="Arial" font-size="12" fill="#333333">APIs</text>
    
    <!-- Connection to Neural Pattern Matching -->
    <path d="M-35,-35 L-170,-170" stroke="#5090c8" stroke-width="1.5" fill="none" />
  </g>
  
  <!-- Legend -->
  <g transform="translate(50, 50)">
    <rect x="0" y="0" width="180" height="110" rx="5" ry="5" fill="white" stroke="#333333" stroke-width="1" opacity="0.7" />
    <text x="10" y="20" font-family="Arial" font-size="12" font-weight="bold" fill="#333333">Legend</text>
    
    <circle cx="20" cy="40" r="10" fill="#7aaddb" opacity="0.7" />
    <text x="40" y="44" font-family="Arial" font-size="10" fill="#333333">Core System</text>
    
    <rect x="10" y="55" width="20" height="15" rx="3" ry="3" fill="#5090c8" stroke="#333333" stroke-width="1" />
    <text x="40" y="67" font-family="Arial" font-size="10" fill="#333333">Processing Module</text>
    
    <circle cx="20" cy="90" r="10" fill="#f0f0f0" stroke="#333333" stroke-width="1" />
    <text x="40" y="94" font-family="Arial" font-size="10" fill="#333333">External System</text>
  </g>
  
  <!-- Title -->
  <text x="400" y="30" text-anchor="middle" font-family="Arial" font-size="20" font-weight="bold" fill="#333333">Neural Interface Architecture</text>
</svg> 