<svg width="1217" height="1217" viewBox="0 0 1217 1217" fill="none" xmlns="http://www.w3.org/2000/svg">
<path opacity="0.94" fill-rule="evenodd" clip-rule="evenodd" d="M821.481 382.878L821.48 382.878C751.137 364.633 678.276 345.735 605.414 346.485C525.138 347.243 450.681 366.209 380.337 384.128L380.336 384.128C332.846 396.225 287.23 407.844 242.964 413.061C240.59 413.315 238.809 411.284 239.699 409.508C250.5 386.236 261.232 365.054 271.961 343.877C283.347 321.404 294.731 298.936 306.193 273.978C315.395 254.182 337.659 240.984 362.594 240.984C362.594 240.984 508.313 202.846 602.743 202.834H603.04C697.815 202.846 844.079 240.984 844.079 240.984C868.718 240.984 890.684 253.928 899.887 273.47L966.083 409.254C966.677 411.284 964.896 413.315 962.818 413.061C917.461 407.773 870.072 395.481 821.481 382.878ZM1081.6 696.203H936.409C927.249 696.203 893.56 687.705 849.984 676.712C770.674 656.705 658.615 628.437 602.085 628.108C542.369 627.941 428.621 657.219 350.087 677.433C308.745 688.074 277.161 696.203 268.355 696.203H122.571C122.402 695.986 122.042 695.748 121.634 695.478C120.603 694.797 119.261 693.911 119.899 692.633C139.792 649.286 173.046 589.62 188.783 561.572C194.424 551.883 205.707 545.763 218.474 545.763H267.464C267.761 545.763 268.058 545.763 268.355 545.508C269.911 545.041 272.505 544.19 276.054 543.027L276.058 543.025C313.152 530.864 454.404 484.553 602.085 484.553C738.291 484.553 872.979 525.501 920.08 539.82C928.116 542.263 933.602 543.931 936.112 544.488H936.706C938.178 544.488 944.54 544.592 952.961 544.729C963.216 544.897 976.525 545.113 987.774 545.253C999.057 545.508 1009.15 550.863 1014.2 559.787C1029.64 587.071 1063.78 648.521 1084.27 692.633C1085.16 694.418 1083.68 696.203 1081.6 696.203ZM991.684 977.945H1201.33C1203.4 977.945 1204.89 976.16 1204 974.375L1154.11 863.203C1149.06 852.494 1136.89 845.354 1123.53 845.354H991.684C926.654 845.354 861.772 825.589 796.89 805.825C732.008 786.06 667.127 766.295 602.096 766.295C537.177 766.295 472.11 786.082 407.079 805.858C342.123 825.612 277.205 845.354 212.509 845.354H80.3694C67.007 845.354 54.8324 852.494 50.0813 863.203L0.195041 974.63C-0.101901 975.395 -0.101883 976.16 0.492001 976.925C0.492001 976.925 1.08589 977.945 2.86755 977.945H212.509C258.68 977.945 318.577 962.931 382.434 946.925C455.335 928.652 533.399 909.085 602.096 909.085C670.794 909.085 748.857 928.652 821.759 946.925C885.616 962.931 945.513 977.945 991.684 977.945Z" fill="black"/>
</svg>
